HIERARCHY
ROOT Hips
{
    OFFSET 0.000000 0.000000 0.000000
    CHANNELS 6 Xposition Yposition Zposition Zrotation Xrotation Yrotation
    JOINT Spine
    {
        OFFSET -0.000000 9.701283 -0.000018
        CHANNELS 3 Zrotation Xrotation Yrotation
        JOINT Spine1
        {
            OFFSET 0.000000 22.755707 -0.000008
            CHANNELS 3 Zrotation Xrotation Yrotation
            JOINT Neck
            {
                OFFSET -0.000003 20.853481 -0.000011
                CHANNELS 3 Zrotation Xrotation Yrotation
                JOINT Head
                {
                    OFFSET -0.000002 12.839990 1.902205
                    CHANNELS 3 Zrotation Xrotation Yrotation
                    End Site
                    {
                        OFFSET 0.000000 19.022141 0.000000
                    }
                }
            }
            JOINT LeftShoulder
            {
                OFFSET 3.797835 16.121201 -0.677276
                CHANNELS 3 Zrotation Xrotation Yrotation
                JOINT LeftArm
                {
                    OFFSET 11.576603 -0.000001 -0.000004
                    CHANNELS 3 Zrotation Xrotation Yrotation
                    JOINT LeftForeArm
                    {
                        OFFSET 29.906404 0.000000 0.000010
                        CHANNELS 3 Zrotation Xrotation Yrotation
                        JOINT LeftHand
                        {
                            OFFSET 24.318304 0.000009 0.000021
                            CHANNELS 3 Zrotation Xrotation Yrotation
                            JOINT LeftHandThumb1
                            {
                                OFFSET 1.987811 -2.258875 3.162444
                                CHANNELS 3 Zrotation Xrotation Yrotation
                                JOINT LeftHandThumb2
                                {
                                    OFFSET 3.002281 -0.000009 -0.000001
                                    CHANNELS 3 Zrotation Xrotation Yrotation
                                    JOINT LeftHandThumb3
                                    {
                                        OFFSET 2.566092 0.000006 0.000003
                                        CHANNELS 3 Zrotation Xrotation Yrotation
                                        End Site
                                        {
                                            OFFSET 2.440626 0.000000 0.000000
                                        }
                                    }
                                }
                            }
                            JOINT LeftHandIndex1
                            {
                                OFFSET 8.131963 0.000005 3.162438
                                CHANNELS 3 Zrotation Xrotation Yrotation
                                JOINT LeftHandIndex2
                                {
                                    OFFSET 4.517766 0.000009 0.000021
                                    CHANNELS 3 Zrotation Xrotation Yrotation
                                    JOINT LeftHandIndex3
                                    {
                                        OFFSET 2.258877 -0.000002 -0.000012
                                        CHANNELS 3 Zrotation Xrotation Yrotation
                                        End Site
                                        {
                                            OFFSET 2.148437 0.000000 0.000000
                                        }
                                    }
                                }
                            }
                            JOINT LeftHandMiddle1
                            {
                                OFFSET 8.131968 0.000007 1.048142
                                CHANNELS 3 Zrotation Xrotation Yrotation
                                JOINT LeftHandMiddle2
                                {
                                    OFFSET 4.969536 0.000008 0.000020
                                    CHANNELS 3 Zrotation Xrotation Yrotation
                                    JOINT LeftHandMiddle3
                                    {
                                        OFFSET 2.710648 -0.000006 -0.000012
                                        CHANNELS 3 Zrotation Xrotation Yrotation
                                        End Site
                                        {
                                            OFFSET 2.578118 0.000000 0.000000
                                        }
                                    }
                                }
                            }
                            JOINT LeftHandRing1
                            {
                                OFFSET 7.680190 -0.000006 -1.048131
                                CHANNELS 3 Zrotation Xrotation Yrotation
                                JOINT LeftHandRing2
                                {
                                    OFFSET 4.517766 0.000004 0.000022
                                    CHANNELS 3 Zrotation Xrotation Yrotation
                                    JOINT LeftHandRing3
                                    {
                                        OFFSET 2.258877 -0.000001 -0.000012
                                        CHANNELS 3 Zrotation Xrotation Yrotation
                                        End Site
                                        {
                                            OFFSET 2.148437 0.000000 0.000000
                                        }
                                    }
                                }
                            }
                            JOINT LeftHandPinky1
                            {
                                OFFSET 7.228415 0.000003 -3.162425
                                CHANNELS 3 Zrotation Xrotation Yrotation
                                JOINT LeftHandPinky2
                                {
                                    OFFSET 3.614197 -0.000005 -0.000017
                                    CHANNELS 3 Zrotation Xrotation Yrotation
                                    JOINT LeftHandPinky3
                                    {
                                        OFFSET 1.807099 -0.000003 -0.000008
                                        CHANNELS 3 Zrotation Xrotation Yrotation
                                        End Site
                                        {
                                            OFFSET 1.718745 0.000000 0.000000
                                        }
                                    }
                                }
                            }
                        }
                    }
                }
            }
            JOINT RightShoulder
            {
                OFFSET -3.797832 16.121197 -0.677301
                CHANNELS 3 Zrotation Xrotation Yrotation
                JOINT RightArm
                {
                    OFFSET -11.576597 0.000000 0.000019
                    CHANNELS 3 Zrotation Xrotation Yrotation
                    JOINT RightForeArm
                    {
                        OFFSET -29.906410 0.000003 -0.000011
                        CHANNELS 3 Zrotation Xrotation Yrotation
                        JOINT RightHand
                        {
                            OFFSET -24.318323 -0.000004 0.000013
                            CHANNELS 3 Zrotation Xrotation Yrotation
                            JOINT RightHandThumb1
                            {
                                OFFSET -1.987809 -2.258876 3.162430
                                CHANNELS 3 Zrotation Xrotation Yrotation
                                JOINT RightHandThumb2
                                {
                                    OFFSET -3.002287 -0.000001 -0.000003
                                    CHANNELS 3 Zrotation Xrotation Yrotation
                                    JOINT RightHandThumb3
                                    {
                                        OFFSET -2.566096 -0.000002 0.000018
                                        CHANNELS 3 Zrotation Xrotation Yrotation
                                        End Site
                                        {
                                            OFFSET -2.440626 0.000000 0.000000
                                        }
                                    }
                                }
                            }
                            JOINT RightHandIndex1
                            {
                                OFFSET -8.131954 0.000017 3.162421
                                CHANNELS 3 Zrotation Xrotation Yrotation
                                JOINT RightHandIndex2
                                {
                                    OFFSET -4.517753 0.000013 -0.000018
                                    CHANNELS 3 Zrotation Xrotation Yrotation
                                    JOINT RightHandIndex3
                                    {
                                        OFFSET -2.258884 -0.000008 0.000008
                                        CHANNELS 3 Zrotation Xrotation Yrotation
                                        End Site
                                        {
                                            OFFSET -2.148437 0.000000 0.000000
                                        }
                                    }
                                }
                            }
                            JOINT RightHandMiddle1
                            {
                                OFFSET -8.131962 -0.000003 1.048123
                                CHANNELS 3 Zrotation Xrotation Yrotation
                                JOINT RightHandMiddle2
                                {
                                    OFFSET -4.969530 0.000001 0.000001
                                    CHANNELS 3 Zrotation Xrotation Yrotation
                                    JOINT RightHandMiddle3
                                    {
                                        OFFSET -2.710646 0.000010 -0.000006
                                        CHANNELS 3 Zrotation Xrotation Yrotation
                                        End Site
                                        {
                                            OFFSET -2.578118 0.000000 0.000000
                                        }
                                    }
                                }
                            }
                            JOINT RightHandRing1
                            {
                                OFFSET -7.680185 0.000006 -1.048131
                                CHANNELS 3 Zrotation Xrotation Yrotation
                                JOINT RightHandRing2
                                {
                                    OFFSET -4.517752 0.000016 -0.000015
                                    CHANNELS 3 Zrotation Xrotation Yrotation
                                    JOINT RightHandRing3
                                    {
                                        OFFSET -2.258884 -0.000009 0.000007
                                        CHANNELS 3 Zrotation Xrotation Yrotation
                                        End Site
                                        {
                                            OFFSET -2.148437 0.000000 0.000000
                                        }
                                    }
                                }
                            }
                            JOINT RightHandPinky1
                            {
                                OFFSET -7.228407 0.000007 -3.162434
                                CHANNELS 3 Zrotation Xrotation Yrotation
                                JOINT RightHandPinky2
                                {
                                    OFFSET -3.614193 0.000010 -0.000013
                                    CHANNELS 3 Zrotation Xrotation Yrotation
                                    JOINT RightHandPinky3
                                    {
                                        OFFSET -1.807097 0.000005 -0.000006
                                        CHANNELS 3 Zrotation Xrotation Yrotation
                                        End Site
                                        {
                                            OFFSET -1.718745 0.000000 0.000000
                                        }
                                    }
                                }
                            }
                        }
                    }
                }
            }
        }
    }
    JOINT LeftUpLeg
    {
        OFFSET 9.511073 -0.000001 0.000016
        CHANNELS 3 Zrotation Xrotation Yrotation
        JOINT LeftLeg
        {
            OFFSET 0.000000 -43.875591 0.000003
            CHANNELS 3 Zrotation Xrotation Yrotation
            JOINT LeftFoot
            {
                OFFSET 0.000001 -35.354198 0.000023
                CHANNELS 3 Zrotation Xrotation Yrotation
                JOINT LeftToeBase
                {
                    OFFSET 0.000002 -6.182190 14.266592
                    CHANNELS 3 Zrotation Xrotation Yrotation
                    End Site
                    {
                        OFFSET 0.000000 0.000000 3.804428
                    }
                }
            }
        }
    }
    JOINT RightUpLeg
    {
        OFFSET -9.511073 0.000001 -0.000016
        CHANNELS 3 Zrotation Xrotation Yrotation
        JOINT RightLeg
        {
            OFFSET -0.000006 -43.875599 -0.000023
            CHANNELS 3 Zrotation Xrotation Yrotation
            JOINT RightFoot
            {
                OFFSET 0.000001 -35.354198 0.000011
                CHANNELS 3 Zrotation Xrotation Yrotation
                JOINT RightToeBase
                {
                    OFFSET 0.000004 -6.182189 14.266604
                    CHANNELS 3 Zrotation Xrotation Yrotation
                    End Site
                    {
                        OFFSET 0.000000 0.000000 3.804428
                    }
                }
            }
        }
    }
}
MOTION
Frames:    4
Frame Time:    0.002778
-33.755756    88.395187    614.307373    -6.445935    -4.845891    150.233871    0.436803    7.904373    -10.045968    2.183986    7.898930    -10.286167    4.365356    9.084932    -6.088208    4.365353    9.084932    -6.088204    4.784096    -1.520866    -1.328847    -60.164181    13.067781    -26.081667    -30.505735    18.474957    -84.912178    -7.886514    -1.958892    11.702851    47.448196    38.866394    -34.355042    -35.000023    0.000004    0.000000    -0.000000    0.000000    -0.000000    0.000001    10.000001    0.000002    -0.000000    0.000000    -0.000000    -0.000000    0.000000    -0.000000    -0.000000    0.000000    -0.000000    -0.000000    0.000000    -0.000000    -0.000000    0.000000    -0.000000    -0.000000    0.000000    -0.000000    -0.000000    0.000000    -0.000000    -0.000000    0.000000    -0.000000    -0.000003    -9.999998    0.000005    -0.000000    0.000000    -0.000000    -0.000000    0.000000    -0.000000    -1.126497    -2.436051    1.549617    59.648849    -28.325478    3.359573    28.798700    15.910892    67.075020    -75.182953    18.853935    -5.118526    -47.448215    38.866405    34.355049    35.000015    0.000003    0.000002    -0.000000    0.000000    -0.000000    -0.000000    9.999995    0.000002    -0.000000    0.000000    -0.000000    -0.000000    0.000000    -0.000000    -0.000000    0.000000    -0.000000    -0.000000    0.000000    -0.000000    -0.000000    0.000000    -0.000000    -0.000000    0.000000    -0.000000    -0.000000    0.000000    -0.000000    -0.000000    0.000000    -0.000000    -0.000001    -9.999985    0.000002    -0.000000    0.000000    -0.000000    -0.000000    0.000000    -0.000000    9.563209    -18.849047    2.464019    0.000001    43.082623    -0.000004    -11.210976    -27.754539    14.984615    0.000000    0.052961    -0.000000    -19.407511    -38.395153    -4.195163    -0.000000    48.027321    0.000001    10.693682    -10.013431    0.084713    0.000000    -4.604823    0.000000    
-33.711227    88.407043    614.317139    -6.486734    -4.836281    150.355453    0.440260    7.897617    -10.021027    2.201276    7.892092    -10.262929    4.386537    9.097329    -6.176163    4.386551    9.097328    -6.176180    4.804626    -1.515273    -1.327737    -60.233150    13.223282    -26.110622    -30.436781    18.464622    -84.859367    -8.075101    -1.993771    11.674704    47.448219    38.866394    -34.355053    -35.000023    -0.000002    -0.000002    -0.000000    0.000000    -0.000000    0.000003    9.999991    -0.000002    -0.000000    0.000000    -0.000000    -0.000000    0.000000    -0.000000    -0.000000    0.000000    -0.000000    -0.000000    0.000000    -0.000000    -0.000000    0.000000    -0.000000    -0.000000    0.000000    -0.000000    -0.000000    0.000000    -0.000000    -0.000000    0.000000    -0.000000    0.000000    -9.999988    -0.000003    -0.000000    0.000000    -0.000000    -0.000000    0.000000    -0.000000    -1.060339    -2.465508    1.569721    59.613590    -28.352880    3.654006    28.848646    15.923452    67.112534    -75.017723    18.850761    -5.175343    -47.448204    38.866398    34.355045    35.000023    0.000001    0.000000    -0.000000    0.000000    -0.000000    0.000001    9.999995    -0.000001    -0.000000    0.000000    -0.000000    -0.000000    0.000000    -0.000000    -0.000000    0.000000    -0.000000    -0.000000    0.000000    -0.000000    -0.000000    0.000000    -0.000000    -0.000000    0.000000    -0.000000    -0.000000    0.000000    -0.000000    -0.000000    0.000000    -0.000000    -0.000001    -9.999998    -0.000003    -0.000000    0.000000    -0.000000    -0.000000    0.000000    -0.000000    9.527299    -18.838980    2.403029    -0.000001    42.969391    -0.000001    -11.210731    -27.667389    14.942864    -0.000000    0.052856    0.000001    -19.447247    -38.373005    -4.205392    0.000001    48.078918    -0.000002    10.639238    -10.064988    -0.027023    0.000000    -4.584379    -0.000000    
-33.665413    88.419250    614.325317    -6.524520    -4.823680    150.486633    0.443499    7.889080    -9.995287    2.217467    7.883478    -10.238705    4.408254    9.108384    -6.267916    4.408252    9.108381    -6.267916    4.822530    -1.508572    -1.323833    -60.295700    13.381036    -26.143251    -30.346561    18.454788    -84.805550    -8.258389    -2.028094    11.652738    47.448204    38.866398    -34.355045    -35.000023    -0.000006    -0.000003    -0.000000    0.000000    -0.000000    -0.000003    9.999989    0.000002    -0.000000    0.000000    -0.000000    -0.000000    0.000000    -0.000000    -0.000000    0.000000    -0.000000    -0.000000    0.000000    -0.000000    -0.000000    0.000000    -0.000000    -0.000000    0.000000    -0.000000    -0.000000    0.000000    -0.000000    -0.000000    0.000000    -0.000000    -0.000000    -9.999993    -0.000000    -0.000000    0.000000    -0.000000    -0.000000    0.000000    -0.000000    -1.004850    -2.484988    1.590459    59.576565    -28.361563    3.956767    28.898109    15.936109    67.158539    -74.853134    18.831182    -5.227826    -47.448204    38.866394    34.355042    35.000019    -0.000003    0.000005    -0.000000    0.000000    -0.000000    0.000001    9.999995    0.000003    -0.000000    0.000000    -0.000000    -0.000000    0.000000    -0.000000    -0.000000    0.000000    -0.000000    -0.000000    0.000000    -0.000000    -0.000000    0.000000    -0.000000    -0.000000    0.000000    -0.000000    -0.000000    0.000000    -0.000000    -0.000000    0.000000    -0.000000    -0.000002    -9.999990    -0.000006    -0.000000    0.000000    -0.000000    -0.000000    0.000000    -0.000000    9.494872    -18.825216    2.346606    0.000001    42.854427    0.000001    -11.214378    -27.576200    14.889203    0.000000    0.052620    -0.000001    -19.490131    -38.344925    -4.219534    0.000001    48.135284    -0.000005    10.591495    -10.114521    -0.143797    -0.000000    -4.564004    -0.000001    
-33.619972    88.432304    614.332642    -6.560663    -4.807305    150.626099    0.447463    7.880939    -9.967480    2.237286    7.875247    -10.212819    4.427497    9.116967    -6.363649    4.427498    9.116972    -6.363650    4.829345    -1.496571    -1.315797    -60.367664    13.537548    -26.166071    -30.264671    18.452183    -84.740891    -8.432817    -2.066813    11.671322    47.448208    38.866402    -34.355049    -35.000023    -0.000001    -0.000004    -0.000000    0.000000    -0.000000    -0.000002    9.999998    -0.000002    -0.000000    0.000000    -0.000000    -0.000000    0.000000    -0.000000    -0.000000    0.000000    -0.000000    -0.000000    0.000000    -0.000000    -0.000000    0.000000    -0.000000    -0.000000    0.000000    -0.000000    -0.000000    0.000000    -0.000000    -0.000000    0.000000    -0.000000    -0.000000    -9.999999    0.000005    -0.000000    0.000000    -0.000000    -0.000000    0.000000    -0.000000    -0.952435    -2.498896    1.617787    59.537945    -28.358772    4.265691    28.943764    15.936763    67.202133    -74.693176    18.803589    -5.276628    -47.448204    38.866405    34.355049    35.000015    0.000001    0.000003    -0.000000    0.000000    -0.000000    0.000001    9.999992    0.000003    -0.000000    0.000000    -0.000000    -0.000000    0.000000    -0.000000    -0.000000    0.000000    -0.000000    -0.000000    0.000000    -0.000000    -0.000000    0.000000    -0.000000    -0.000000    0.000000    -0.000000    -0.000000    0.000000    -0.000000    -0.000000    0.000000    -0.000000    0.000001    -9.999994    0.000004    -0.000000    0.000000    -0.000000    -0.000000    0.000000    -0.000000    9.462383    -18.807791    2.293222    0.000002    42.737129    -0.000000    -11.224976    -27.482811    14.818894    0.000000    0.052312    -0.000001    -19.542486    -38.311939    -4.242270    0.000001    48.195759    0.000003    10.559328    -10.156618    -0.254434    -0.000000    -4.544140    -0.000005    
